<svg xmlns="http://www.w3.org/2000/svg" xmlns:xlink="http://www.w3.org/1999/xlink" viewBox="0 0 688.31 516.8"><defs><style>.cls-1,.cls-12{fill:#1d1d1b;}.cls-2{fill:#fff;}.cls-3,.cls-7,.cls-8{stroke:#7acbe2;}.cls-10,.cls-11,.cls-12,.cls-3,.cls-4,.cls-5,.cls-6,.cls-7,.cls-8,.cls-9{stroke-miterlimit:10;}.cls-3,.cls-6,.cls-9{stroke-width:2px;}.cls-3{fill:url(#radial-gradient);}.cls-10,.cls-11,.cls-4,.cls-7{fill:none;}.cls-4,.cls-5,.cls-6{stroke:#b180b7;}.cls-4,.cls-5,.cls-7,.cls-8{stroke-width:3px;}.cls-5{fill:#b180b7;}.cls-6{fill:url(#radial-gradient-2);}.cls-8{fill:#7acbe2;}.cls-9{fill:#131313;}.cls-10,.cls-11,.cls-12,.cls-9{stroke:#131313;}.cls-10{stroke-width:10px;}.cls-11{stroke-linecap:round;stroke-width:6px;}</style><radialGradient id="radial-gradient" cx="370.76" cy="189.93" r="155.17" gradientUnits="userSpaceOnUse"><stop offset="0" stop-color="#7acbe2"/><stop offset="0.48" stop-color="#7bc9e1"/><stop offset="0.65" stop-color="#80c2dd"/><stop offset="0.77" stop-color="#89b7d6"/><stop offset="0.87" stop-color="#95a6cd"/><stop offset="0.95" stop-color="#a590c0"/><stop offset="1" stop-color="#b180b7"/></radialGradient><radialGradient id="radial-gradient-2" cx="521.99" cy="333.11" r="155.17" gradientUnits="userSpaceOnUse"><stop offset="0" stop-color="#b180b7"/><stop offset="0.48" stop-color="#b082b8"/><stop offset="0.65" stop-color="#ab89bc"/><stop offset="0.77" stop-color="#a294c3"/><stop offset="0.87" stop-color="#96a5cc"/><stop offset="0.95" stop-color="#86bbd9"/><stop offset="1" stop-color="#7acbe2"/></radialGradient></defs><g id="Layer_6" data-name="Layer 6"><path class="cls-1" d="M-131.69,56.05c3.22,0,3.22-5,0-5s-3.22,5,0,5Z" transform="translate(134.1 -51.05)"/><path class="cls-2" d="M167.75,371.36c-5,.82-8.95,4.69-11.62,8.7-1.89,2.84-3,6.28-4,9.51a108,108,0,0,0-4,19.59c-1.54,12.25-.67,24.57,1.41,36.71,4.05,23.69,14.52,46,26.72,66.49,6.68,11.24,14,22.1,21.26,32.95a13.32,13.32,0,0,0,7.47,5.75,12.8,12.8,0,0,0,9.63-1.26,12.66,12.66,0,0,0,5.75-7.47c.72-3.17.61-6.85-1.26-9.64-10.63-15.81-21.28-31.68-30-48.65-2.45-4.78-4.74-9.65-6.83-14.6l1.26,3a150.81,150.81,0,0,1-10.59-37.66l.45,3.33a112.52,112.52,0,0,1-.22-29.39l-.45,3.33a80.31,80.31,0,0,1,5-19.86l-1.26,3a15.14,15.14,0,0,1,1.7-3l-2,2.53a8.42,8.42,0,0,1,1.39-1.41l-2.53,2a6.12,6.12,0,0,1,1.1-.65l-3,1.26a7,7,0,0,1,1.27-.35c2.9-.48,6-3.3,7.47-5.74a12.81,12.81,0,0,0,1.26-9.63,12.65,12.65,0,0,0-5.75-7.47l-3-1.26a12.51,12.51,0,0,0-6.65,0Z" transform="translate(134.1 -51.05)"/><path class="cls-2" d="M155.85,517.92a234.68,234.68,0,0,0,14.43,27.24,13.1,13.1,0,0,0,7.47,5.75,12.51,12.51,0,0,0,14.12-18.37,231.66,231.66,0,0,1-14.43-27.24c-1.2-2.68-4.76-5-7.47-5.74a12.5,12.5,0,0,0-15.38,8.73l-.45,3.32a12.48,12.48,0,0,0,1.71,6.31Z" transform="translate(134.1 -51.05)"/><path class="cls-2" d="M197.59,523.52a30.36,30.36,0,0,0-7.09,11.53,23.31,23.31,0,0,0-1.29,10.63,26.88,26.88,0,0,0,2.49,9.16,21.74,21.74,0,0,0,4,5.67,19.45,19.45,0,0,0,2.63,2.24,23.11,23.11,0,0,0,2.82,2,23.59,23.59,0,0,0,6.85,2.6,26.64,26.64,0,0,0,10,.07,24.31,24.31,0,0,0,6.78-2.37,25.09,25.09,0,0,0,10.05-9.52c4.72-7.82,4.84-18.94-.32-26.62a25.72,25.72,0,0,0-13.89-10.45,23.35,23.35,0,0,0-14.89.3,9.33,9.33,0,0,0-4.25,2.23,9.46,9.46,0,0,0-3.22,3.51,12.76,12.76,0,0,0-1.26,9.63,12.61,12.61,0,0,0,5.74,7.47c2.77,1.47,6.59,2.5,9.63,1.26a12.74,12.74,0,0,1,2.7-.75l-3.33.44a13.67,13.67,0,0,1,3.5,0l-3.33-.45a14.48,14.48,0,0,1,3,.83l-3-1.26a13.69,13.69,0,0,1,3,1.76l-2.53-1.95a12.49,12.49,0,0,1,2,2l-2-2.53a13.35,13.35,0,0,1,1.6,2.79l-1.26-3a14.6,14.6,0,0,1,.84,3.11l-.45-3.32a14.87,14.87,0,0,1,0,3.59l.44-3.32a14.32,14.32,0,0,1-.91,3.47l1.26-3a14.06,14.06,0,0,1-1.64,2.8l2-2.53a15.63,15.63,0,0,1-2.29,2.31l2.53-2a14.54,14.54,0,0,1-3.12,1.82l3-1.26a13.65,13.65,0,0,1-3.13.83l3.32-.45a12.91,12.91,0,0,1-3,0l3.33.44a13.34,13.34,0,0,1-3.23-.89l3,1.26a14.34,14.34,0,0,1-2.56-1.51l2.53,2a12.73,12.73,0,0,1-1.85-1.82l2,2.53a11.74,11.74,0,0,1-1.52-2.58l1.26,3a13,13,0,0,1-.79-2.85l.45,3.32a15.3,15.3,0,0,1,0-4l-.44,3.32a17.54,17.54,0,0,1,1.09-4l-1.26,3a17.48,17.48,0,0,1,2.25-3.85l-2,2.53a19.78,19.78,0,0,1,1.37-1.52,12.48,12.48,0,0,0,0-17.68,12.55,12.55,0,0,0-8.83-3.66,13.1,13.1,0,0,0-8.84,3.66Z" transform="translate(134.1 -51.05)"/><path class="cls-2" d="M177.94,396.59a115.28,115.28,0,0,0,24.87,8.13,117,117,0,0,0,26.2,2.19,13.1,13.1,0,0,0,8.84-3.66A12.5,12.5,0,0,0,229,381.91a103.63,103.63,0,0,1-17.43-.85l3.32.44a101.92,101.92,0,0,1-25.64-7l3,1.26-1.68-.73a9.32,9.32,0,0,0-4.65-1.48,9.48,9.48,0,0,0-5,.22,12.76,12.76,0,0,0-7.48,5.75,12.63,12.63,0,0,0-1.26,9.63c.94,2.89,2.84,6.18,5.75,7.47Z" transform="translate(134.1 -51.05)"/><path class="cls-2" d="M174.53,398.6a156.69,156.69,0,0,0-4.43,27.64,32,32,0,0,0,2,14.47c2,4.8,4.1,9.53,6.17,14.29,1.17,2.67,4.79,5,7.47,5.74a12.8,12.8,0,0,0,9.63-1.26,12.63,12.63,0,0,0,5.75-7.47l.44-3.32a12.37,12.37,0,0,0-1.7-6.31c-1.55-3.56-3.12-7.11-4.65-10.67l1.26,3a24.27,24.27,0,0,1-1.75-5.64l.45,3.32c-.62-4.72.2-9.78.82-14.47l-.45,3.33a139.62,139.62,0,0,1,3.12-16,13,13,0,0,0-1.26-9.63,12.5,12.5,0,0,0-22.84,3Z" transform="translate(134.1 -51.05)"/><path class="cls-2" d="M337.72,124.76l25.33-6.35c8.2-2.06,16.4-4.19,24.79-5.35l-3.32.45a72.2,72.2,0,0,1,18.69-.27l-3.32-.45a49.84,49.84,0,0,1,12.75,3.39l-3-1.26a39.49,39.49,0,0,1,8.5,5l-2.53-2a41.69,41.69,0,0,1,7,7.06l-2-2.53a65.37,65.37,0,0,1,8.13,14.47l-1.26-3c2,4.84,3.68,9.81,5.31,14.79a13.16,13.16,0,0,0,5.74,7.47,12.5,12.5,0,0,0,17.1-4.48,12.61,12.61,0,0,0,1.26-9.64c-2.79-8.57-5.75-17.24-10.1-25.17-4.75-8.66-11.55-16.39-20.16-21.38C417.6,90.27,407,88,396.58,87.74c-10.74-.2-21.52,2-31.91,4.51-11.22,2.72-22.4,5.6-33.59,8.4a12.85,12.85,0,0,0-7.47,5.75,12.5,12.5,0,0,0,14.11,18.36Z" transform="translate(134.1 -51.05)"/><path class="cls-2" d="M444.26,139.77a19,19,0,0,0-8.63,2.37,18.38,18.38,0,0,0-5.57,5,20.23,20.23,0,0,0-4.45,12.65c.1,8.85,5.76,16.63,13.12,21.1,7.09,4.31,17,5.57,24.26.95a22.57,22.57,0,0,0,6.45-6.28,25.11,25.11,0,0,0,2.93-6,26.39,26.39,0,0,0,.82-13.71,22.61,22.61,0,0,0-6.59-12.15,21.81,21.81,0,0,0-5.45-3.93,24.39,24.39,0,0,0-9.39-2.52c-3-.3-6.79,1.61-8.84,3.66a12.51,12.51,0,0,0,0,17.68l2.53,2a12.47,12.47,0,0,0,6.31,1.7l.32,0-3.32-.44a10,10,0,0,1,2.46.65l-3-1.26a11.88,11.88,0,0,1,2.48,1.46l-2.53-1.95a12.6,12.6,0,0,1,1.82,1.83l-2-2.53a12,12,0,0,1,1.5,2.54l-1.26-3a13.19,13.19,0,0,1,.8,2.89l-.45-3.32a14.34,14.34,0,0,1,0,3.76l.45-3.32a15.88,15.88,0,0,1-1,3.65l1.26-3a12.79,12.79,0,0,1-1.53,2.69l2-2.53a10.31,10.31,0,0,1-1.44,1.44l2.53-2a8.84,8.84,0,0,1-1.63.94l3-1.26a9.49,9.49,0,0,1-2.09.56l3.32-.45a11,11,0,0,1-2.86,0l3.32.45a15.71,15.71,0,0,1-3.5-1l3,1.26a17.79,17.79,0,0,1-3.71-2.2l2.53,1.95a17.68,17.68,0,0,1-2.9-2.9l1.95,2.53a13.82,13.82,0,0,1-1.69-2.9l1.26,3a11.53,11.53,0,0,1-.62-2.25l.45,3.32a9,9,0,0,1,0-2.14l-.44,3.32a9.44,9.44,0,0,1,.52-2l-1.26,3a8.85,8.85,0,0,1,1.19-2l-2,2.53a8.94,8.94,0,0,1,1.24-1.22l-2.53,2a6.49,6.49,0,0,1,1.21-.73l-3,1.26a5.85,5.85,0,0,1,1.65-.45l-3.33.44.29,0c3.37-.28,6.39-1.21,8.84-3.66a12.51,12.51,0,0,0,0-17.68c-2.32-2.14-5.56-3.93-8.84-3.66Z" transform="translate(134.1 -51.05)"/><path class="cls-2" d="M317.43,109.19c7.65-3.59,15.32-7.16,23.1-10.45l-3,1.26c14.18-6,28.87-11,44.18-13.09l-3.32.45a91.81,91.81,0,0,1,23.94-.29L399,86.62a54.78,54.78,0,0,1,13.65,3.71l-3-1.26A61.78,61.78,0,0,1,423,97l-2.53-2a93.37,93.37,0,0,1,16.25,16.63l-2-2.53q2.66,3.45,5.09,7.06a13.28,13.28,0,0,0,7.47,5.74,12.8,12.8,0,0,0,9.63-1.26,12.57,12.57,0,0,0,5.74-7.47c.72-3.16.62-6.85-1.26-9.63-12-17.82-28.23-34.57-49.81-39.92-12.69-3.15-25.77-2.48-38.58-.56a157.33,157.33,0,0,0-31.45,8.53c-12.53,4.68-24.7,10.31-36.8,16-2.69,1.26-5,4.71-5.74,7.47a12.71,12.71,0,0,0,1.26,9.63,12.57,12.57,0,0,0,7.47,5.74l3.32.45a12.38,12.38,0,0,0,6.31-1.71Z" transform="translate(134.1 -51.05)"/><path class="cls-2" d="M349.1,97.26Q362,94.2,375,92q6.36-1.06,12.75-1.93a81.51,81.51,0,0,1,11.14-1c3.4,0,7,.57,9.61,2.93,2.39,2.16,5.93-1.37,3.54-3.53-5.83-5.28-14-4.67-21.23-3.76q-13.81,1.72-27.5,4.39-7.8,1.53-15.55,3.38c-3.13.74-1.8,5.56,1.33,4.82Z" transform="translate(134.1 -51.05)"/><path class="cls-2" d="M321.41,104.84h-.69a1.88,1.88,0,0,0-1,.22,2.3,2.3,0,0,0-1.32,1.32,1.88,1.88,0,0,0-.22,1l.09.67a2.52,2.52,0,0,0,.65,1.1l.5.39a2.43,2.43,0,0,0,1.26.34h.69a1.8,1.8,0,0,0,1-.21,2.3,2.3,0,0,0,1.32-1.32,1.8,1.8,0,0,0,.21-1l-.09-.66a2.41,2.41,0,0,0-.64-1.1l-.5-.39a2.55,2.55,0,0,0-1.27-.35Z" transform="translate(134.1 -51.05)"/><path class="cls-2" d="M332.38,134.31a164.09,164.09,0,0,1,13.22,15l-2-2.53A165.23,165.23,0,0,1,365,183.45l-1.26-3A163.43,163.43,0,0,1,375,221.75l-.45-3.33q.6,4.47.94,9a13.36,13.36,0,0,0,3.66,8.84,12.51,12.51,0,0,0,17.68,0c2.15-2.34,3.92-5.56,3.66-8.84a173.5,173.5,0,0,0-10-46.9,175.81,175.81,0,0,0-22.18-42.18,180.46,180.46,0,0,0-18.23-21.66,12.94,12.94,0,0,0-8.84-3.66,12.75,12.75,0,0,0-8.84,3.66,12.57,12.57,0,0,0-3.66,8.84,13.05,13.05,0,0,0,3.66,8.84Z" transform="translate(134.1 -51.05)"/><path class="cls-2" d="M391.81,243.31a142.27,142.27,0,0,1,18.56,1.24l-3.32-.45a150.33,150.33,0,0,1,37.86,10.4l-3-1.26a159.65,159.65,0,0,1,35.14,20.54l-2.53-1.95a156.76,156.76,0,0,1,27.89,27.79l-1.95-2.53a145.92,145.92,0,0,1,18.84,32l-1.26-3a148,148,0,0,1,10.22,37.7l-.44-3.32a160.45,160.45,0,0,1-.09,42.28l.45-3.33a163.83,163.83,0,0,1-11.27,41.29l1.26-3a154.54,154.54,0,0,1-19.65,33.81l1.95-2.53a149.27,149.27,0,0,1-26.56,26.54l2.53-2A161.47,161.47,0,0,1,441,514.28l3-1.26a168.23,168.23,0,0,1-42.71,11.67l3.33-.45a162,162,0,0,1-42.88,0l3.32.44a155.22,155.22,0,0,1-39.32-10.84l3,1.26a154.05,154.05,0,0,1-33.92-19.8l2.53,2a144.42,144.42,0,0,1-25.44-25.43l2,2.53a149.12,149.12,0,0,1-19.26-33l1.26,3A147.28,147.28,0,0,1,245.66,407l.44,3.32q-.91-7-1.15-14a13.08,13.08,0,0,0-3.66-8.84A12.5,12.5,0,0,0,220,396.26a158.18,158.18,0,0,0,79.42,132.17,169,169,0,0,0,75.42,22.06,174.22,174.22,0,0,0,70.6-11.25c23.22-8.9,44.68-22.23,62.05-40.14A166.45,166.45,0,0,0,545.67,435a177.85,177.85,0,0,0,7.63-36.75,159.27,159.27,0,0,0-.07-34.58,162.81,162.81,0,0,0-8.16-36.75,155.74,155.74,0,0,0-16.31-33.07,169,169,0,0,0-84.83-66.42,160.57,160.57,0,0,0-35.76-8.15,141.94,141.94,0,0,0-16.36-1A12.91,12.91,0,0,0,383,222a12.7,12.7,0,0,0-3.66,8.84c.3,6.78,5.49,12.5,12.5,12.5Z" transform="translate(134.1 -51.05)"/><path class="cls-2" d="M305.56,87.79A170.74,170.74,0,0,0,281.49,79a177.6,177.6,0,0,0-25.05-4.76A177,177,0,0,0,162,89.37a161.54,161.54,0,0,0-40.12,26.31,164.39,164.39,0,0,0-30.29,36.46,176.91,176.91,0,0,0-26,90.22,163,163,0,0,0,6.55,47.79A148.42,148.42,0,0,0,83.44,318,161.32,161.32,0,0,0,99,341.21c10.44,13.3,22.74,25,35.3,36.26q4.65,4.17,9.34,8.3a13.22,13.22,0,0,0,8.84,3.66,12.71,12.71,0,0,0,8.84-3.66,12.56,12.56,0,0,0,3.66-8.84c-.14-3.19-1.18-6.65-3.66-8.84C148.77,357,136.2,345.86,125,333.38q-4.78-5.31-9.16-11l2,2.53a136.36,136.36,0,0,1-17.73-30l1.26,3a146,146,0,0,1-9.89-36.78l.45,3.32A158.58,158.58,0,0,1,92,222.72L91.51,226A166.53,166.53,0,0,1,103.1,183.7l-1.26,3a161.58,161.58,0,0,1,20.6-35.39l-2,2.53A149.58,149.58,0,0,1,147.14,127l-2.53,2a154.1,154.1,0,0,1,34.23-19.91l-3,1.26A165.41,165.41,0,0,1,217.78,99l-3.32.45a165,165,0,0,1,43.44,0L254.58,99a153.06,153.06,0,0,1,38.62,10.49l-3-1.26c.91.38,1.81.78,2.72,1.18a9.25,9.25,0,0,0,4.64,1.48,9.52,9.52,0,0,0,5-.22,12.51,12.51,0,0,0,8.73-15.38c-.94-2.9-2.84-6.18-5.74-7.47Z" transform="translate(134.1 -51.05)"/><path class="cls-2" d="M155.9,392.26a12.94,12.94,0,0,0,8.84-3.66,12.51,12.51,0,0,0,0-17.68,12.51,12.51,0,0,0-17.68,0,12.51,12.51,0,0,0,0,17.68,13,13,0,0,0,8.84,3.66Z" transform="translate(134.1 -51.05)"/><path class="cls-2" d="M341,138.08a103.65,103.65,0,0,1,10.11,11.34l-1.95-2.53a173.5,173.5,0,0,1,22.3,38.1l-1.26-3a142.89,142.89,0,0,1,9.78,35.8l-.45-3.32.24,1.84a13.8,13.8,0,0,0,3.66,8.84,12.51,12.51,0,0,0,17.68,0c2.08-2.26,4.05-5.63,3.66-8.84a154.69,154.69,0,0,0-10.46-41A188.17,188.17,0,0,0,374.2,139a128.69,128.69,0,0,0-15.52-18.55,13,13,0,0,0-8.84-3.66A12.73,12.73,0,0,0,341,120.4a12.6,12.6,0,0,0-3.66,8.84,12.88,12.88,0,0,0,3.66,8.84Z" transform="translate(134.1 -51.05)"/></g><g id="Layer_2" data-name="Layer 2"><circle class="cls-3" cx="370.76" cy="189.93" r="155.17"/></g><g id="Layer_3" data-name="Layer 3"><circle class="cls-4" cx="371.22" cy="189.79" r="77.24"/><circle class="cls-4" cx="370.76" cy="189.93" r="53.59"/><circle class="cls-5" cx="370.76" cy="189.93" r="28.73"/></g><g id="Layer_1" data-name="Layer 1"><circle class="cls-6" cx="521.99" cy="333.11" r="155.17"/></g><g id="Layer_4" data-name="Layer 4"><circle class="cls-7" cx="522.45" cy="332.97" r="77.24"/><circle class="cls-7" cx="521.99" cy="333.11" r="53.59"/><circle class="cls-8" cx="521.99" cy="333.11" r="28.73"/></g><g id="Layer_5" data-name="Layer 5"><circle class="cls-9" cx="213.76" cy="544.49" r="15" transform="translate(-57.99 72.2) rotate(-22.5)"/><ellipse class="cls-9" cx="584.09" cy="109.88" rx="15" ry="14.66"/><path class="cls-10" d="M446.41,149.65c-8.55-12.57-11.14-33.37-27.7-43.94-33.22-21.22-81.1,4-162.81,48.32-79.84,43.34-120.57,66.15-120,100,.35,21.28,17.11,46,38.62,51.73,45.14,12.13,81.82-66.93,124.14-54.48,23.93,7,40.72,40.71,33.1,58.62-7,16.36-31.27,12.44-75.17,26.89-25.62,8.44-72.37,23.83-89.66,52.42C134.5,442.83,208.62,538,213.76,544.49" transform="translate(134.1 -51.05)"/><circle class="cls-9" cx="585.23" cy="60.65" r="5.89"/><path class="cls-11" d="M444.17,98.64a63,63,0,0,0-16.51-15.47C382.55,54.35,315.59,97,311.76,99.55" transform="translate(134.1 -51.05)"/><circle class="cls-12" cx="434.65" cy="54.66" r="6.9"/><circle class="cls-12" cx="243.35" cy="196.87" r="6.9"/><path class="cls-11" d="M223.48,317.72c-8.4,5.72-21.72,12.5-38,12-31-.91-60.51-27.95-71.69-67.89" transform="translate(134.1 -51.05)"/><circle class="cls-12" cx="494.28" cy="251.98" r="6.9"/><path class="cls-11" d="M359.34,289.9c-4.46-28.28-23.81-51.31-49.6-58.94-29-8.59-53.33,6.11-57.29,8.59" transform="translate(134.1 -51.05)"/><circle class="cls-12" cx="398.49" cy="310.22" r="6.9"/><circle class="cls-12" cx="323.17" cy="398.59" r="6.9"/><path class="cls-11" d="M251.07,363.62c-40.16,8.2-68.26,30.66-70.21,55.16a39.23,39.23,0,0,0,4,20" transform="translate(134.1 -51.05)"/><path class="cls-11" d="M165.4,508.88l20.46,32.4" transform="translate(134.1 -51.05)"/></g></svg>