<?xml version="1.0" encoding="utf-8"?>
<!-- Generator: Adobe Illustrator 24.1.2, SVG Export Plug-In . SVG Version: 6.00 Build 0)  -->
<svg version="1.1" xmlns="http://www.w3.org/2000/svg" xmlns:xlink="http://www.w3.org/1999/xlink" x="0px" y="0px"
	 viewBox="0 0 625 625" style="enable-background:new 0 0 625 625;" xml:space="preserve">
<style type="text/css">
	.st0{fill:url(#SVGID_1_);stroke:#7ACBE2;stroke-width:2;stroke-miterlimit:10;}
	.st1{fill:none;stroke:#B180B7;stroke-width:3;stroke-miterlimit:10;}
	.st2{fill:#B180B7;stroke:#B180B7;stroke-width:3;stroke-miterlimit:10;}
	.st3{fill:url(#SVGID_2_);stroke:#B180B7;stroke-width:2;stroke-miterlimit:10;}
	.st4{fill:none;stroke:#7ACBE2;stroke-width:3;stroke-miterlimit:10;}
	.st5{fill:#7ACBE2;stroke:#7ACBE2;stroke-width:3;stroke-miterlimit:10;}
	.st6{fill:#131313;stroke:#131313;stroke-width:2;stroke-miterlimit:10;}
	.st7{fill:none;stroke:#131313;stroke-width:10;stroke-miterlimit:10;}
	.st8{fill:none;stroke:#131313;stroke-width:6;stroke-linecap:round;stroke-miterlimit:10;}
	.st9{stroke:#131313;stroke-miterlimit:10;}
</style>
<g id="Layer_2">
	<radialGradient id="SVGID_1_" cx="236.6562" cy="240.9815" r="155.1724" gradientUnits="userSpaceOnUse">
		<stop  offset="0" style="stop-color:#7ACBE2"/>
		<stop  offset="0.4178" style="stop-color:#7BCAE2"/>
		<stop  offset="0.5683" style="stop-color:#7FC8E1"/>
		<stop  offset="0.6756" style="stop-color:#85C3DE"/>
		<stop  offset="0.7623" style="stop-color:#8DBCDB"/>
		<stop  offset="0.8366" style="stop-color:#96B2D6"/>
		<stop  offset="0.9024" style="stop-color:#A0A5CE"/>
		<stop  offset="0.9604" style="stop-color:#AA92C2"/>
		<stop  offset="1" style="stop-color:#B180B7"/>
	</radialGradient>
	<circle class="st0" cx="236.7" cy="241" r="155.2"/>
</g>
<g id="Layer_3">
	<circle class="st1" cx="237.1" cy="240.8" r="77.2"/>
	<circle class="st1" cx="236.7" cy="241" r="53.6"/>
	<circle class="st2" cx="236.7" cy="241" r="28.7"/>
</g>
<g id="Layer_1">
	<radialGradient id="SVGID_2_" cx="387.8864" cy="384.1595" r="155.1724" gradientUnits="userSpaceOnUse">
		<stop  offset="0" style="stop-color:#B180B7"/>
		<stop  offset="0.4178" style="stop-color:#B182B8"/>
		<stop  offset="0.5683" style="stop-color:#AF86BB"/>
		<stop  offset="0.6756" style="stop-color:#AC8EC0"/>
		<stop  offset="0.7623" style="stop-color:#A799C7"/>
		<stop  offset="0.8366" style="stop-color:#A0A6CE"/>
		<stop  offset="0.9024" style="stop-color:#96B3D6"/>
		<stop  offset="0.9604" style="stop-color:#88C1DD"/>
		<stop  offset="1" style="stop-color:#7ACBE2"/>
	</radialGradient>
	<circle class="st3" cx="387.9" cy="384.2" r="155.2"/>
</g>
<g id="Layer_4">
	<circle class="st4" cx="388.3" cy="384" r="77.2"/>
	<circle class="st4" cx="387.9" cy="384.2" r="53.6"/>
	<circle class="st5" cx="387.9" cy="384.2" r="28.7"/>
</g>
<g id="Layer_5">
	
		<ellipse transform="matrix(0.9239 -0.3827 0.3827 0.9239 -192.0943 123.2473)" class="st6" cx="213.8" cy="544.5" rx="15" ry="15"/>
	<ellipse class="st6" cx="450" cy="160.9" rx="15" ry="14.7"/>
	<path class="st7" d="M446.4,149.7c-8.6-12.6-11.1-33.4-27.7-43.9c-33.2-21.2-81.1,4-162.8,48.3c-79.8,43.3-120.6,66.1-120,100
		c0.4,21.3,17.1,45.9,38.6,51.7c45.1,12.1,81.8-66.9,124.1-54.5c23.9,7,40.7,40.7,33.1,58.6c-7,16.4-31.3,12.4-75.2,26.9
		c-25.6,8.4-72.4,23.8-89.7,52.4c-32.4,53.6,41.7,148.8,46.8,155.3"/>
	<circle class="st6" cx="451.1" cy="111.7" r="5.9"/>
	<path class="st8" d="M444.2,98.6c-5.4-7.2-11.2-12.1-16.5-15.5C382.5,54.4,315.6,97,311.8,99.6"/>
	<circle class="st9" cx="300.5" cy="105.7" r="6.9"/>
	<circle class="st9" cx="109.2" cy="247.9" r="6.9"/>
	<path class="st8" d="M223.5,317.7c-8.4,5.7-21.7,12.5-38,12c-31-0.9-60.5-27.9-71.7-67.9"/>
	<circle class="st9" cx="360.2" cy="303" r="6.9"/>
	<path class="st8" d="M359.3,289.9c-4.5-28.3-23.8-51.3-49.6-58.9c-29-8.6-53.3,6.1-57.3,8.6"/>
	<circle class="st9" cx="264.4" cy="361.3" r="6.9"/>
	<circle class="st9" cx="189.1" cy="449.6" r="6.9"/>
	<path class="st8" d="M251.1,363.6c-40.2,8.2-68.3,30.7-70.2,55.2c-0.4,4.9,0.1,11.7,4,20"/>
	<path class="st8" d="M165.4,508.9c6.8,10.8,13.6,21.6,20.5,32.4"/>
</g>
</svg>
